<svg aria-hidden="true" style="position:absolute;width:0;height:0" xmlns="http://www.w3.org/2000/svg" overflow="hidden"><defs><symbol id="icon-bell-solid" viewBox="0 0 28 32"><path d="M14 32a4 4 0 003.998-4h-7.996A4 4 0 0014 32zm13.462-9.357c-1.207-1.297-3.467-3.249-3.467-9.643 0-4.856-3.405-8.744-7.996-9.697V2a2 2 0 10-3.998 0v1.303C7.41 4.257 4.005 8.144 4.005 13c0 6.394-2.259 8.346-3.467 9.643A1.953 1.953 0 000 24c.007 1.025.811 2 2.006 2h23.988c1.195 0 2-.975 2.006-2a1.953 1.953 0 00-.538-1.357z"/></symbol><symbol id="icon-check-solid" viewBox="0 0 32 32"><path d="M10.869 27.463l-10.4-10.4a1.6 1.6 0 010-2.263l2.263-2.263a1.6 1.6 0 012.263 0l7.006 7.006L27.007 4.537a1.6 1.6 0 012.263 0L31.533 6.8a1.6 1.6 0 010 2.263l-18.4 18.4a1.6 1.6 0 01-2.263 0z"/></symbol><symbol id="icon-thumbtack-solid" viewBox="0 0 24 32"><path d="M18.627 13.392L17.862 6H20.5A1.5 1.5 0 0022 4.5v-3A1.5 1.5 0 0020.5 0h-17A1.5 1.5 0 002 1.5v3A1.5 1.5 0 003.5 6h2.638l-.765 7.392C2.341 14.802 0 17.329 0 20.5A1.5 1.5 0 001.5 22H10v6.5c0 .078.018.154.053.224l1.5 3a.5.5 0 00.894 0l1.5-3A.497.497 0 0014 28.5V22h8.5a1.5 1.5 0 001.5-1.5c0-3.199-2.374-5.714-5.373-7.108z"/></symbol><symbol id="icon-tint-solid" viewBox="0 0 22 32"><path d="M12.826 1.381c-.496-1.799-3.09-1.883-3.652 0C6.251 11.241 0 13.92 0 20.87c0 6.152 4.92 11.131 11 11.131s11-4.978 11-11.131c0-6.984-6.237-9.584-9.174-19.489zM11 28c-3.859 0-7-3.141-7-7a1 1 0 112 0c0 2.757 2.243 5 5 5a1 1 0 110 2z"/></symbol></defs></svg>