<svg aria-hidden="true" style="position: absolute; width: 0; height: 0; overflow: hidden;" version="1.1" xmlns="http://www.w3.org/2000/svg" xmlns:xlink="http://www.w3.org/1999/xlink">
<defs>
<symbol id="icon-bell-solid" viewBox="0 0 28 32">
<title>bell-solid</title>
<path d="M14 32c2.207 0 3.998-1.791 3.998-4h-7.996c0 2.209 1.791 4 3.998 4zM27.462 22.643c-1.207-1.297-3.467-3.249-3.467-9.643 0-4.856-3.405-8.744-7.996-9.697v-1.303c0-1.104-0.895-2-1.999-2s-1.999 0.896-1.999 2v1.303c-4.591 0.954-7.996 4.841-7.996 9.697 0 6.394-2.259 8.346-3.467 9.643-0.375 0.403-0.541 0.885-0.538 1.357 0.007 1.025 0.811 2 2.006 2h23.988c1.195 0 2-0.975 2.006-2 0.003-0.472-0.163-0.954-0.538-1.357z"></path>
</symbol>
<symbol id="icon-check-solid" viewBox="0 0 32 32">
<title>check-solid</title>
<path d="M10.869 27.463l-10.4-10.4c-0.625-0.625-0.625-1.638 0-2.263l2.263-2.263c0.625-0.625 1.638-0.625 2.263 0l7.006 7.006 15.006-15.006c0.625-0.625 1.638-0.625 2.263 0l2.263 2.263c0.625 0.625 0.625 1.638 0 2.263l-18.4 18.4c-0.625 0.625-1.638 0.625-2.263-0z"></path>
</symbol>
<symbol id="icon-thumbtack-solid" viewBox="0 0 24 32">
<title>thumbtack-solid</title>
<path d="M18.627 13.392l-0.765-7.392h2.638c0.828 0 1.5-0.672 1.5-1.5v-3c0-0.828-0.672-1.5-1.5-1.5h-17c-0.828 0-1.5 0.672-1.5 1.5v3c0 0.828 0.672 1.5 1.5 1.5h2.638l-0.765 7.392c-3.032 1.41-5.373 3.937-5.373 7.108 0 0.828 0.672 1.5 1.5 1.5h8.5v6.5c0 0.078 0.018 0.154 0.053 0.224l1.5 3c0.184 0.368 0.71 0.368 0.894 0l1.5-3c0.033-0.065 0.053-0.142 0.053-0.224v0-6.5h8.5c0.828 0 1.5-0.672 1.5-1.5-0-3.199-2.374-5.714-5.373-7.108z"></path>
</symbol>
<symbol id="icon-tint-solid" viewBox="0 0 22 32">
<title>tint-solid</title>
<path d="M12.826 1.381c-0.496-1.799-3.090-1.883-3.652 0-2.923 9.86-9.174 12.539-9.174 19.489 0 6.152 4.92 11.131 11 11.131s11-4.978 11-11.131c0-6.984-6.237-9.584-9.174-19.489zM11 28c-3.859 0-7-3.141-7-7 0-0.552 0.447-1 1-1s1 0.448 1 1c0 2.757 2.243 5 5 5 0.553 0 1 0.448 1 1s-0.447 1-1 1z"></path>
</symbol>
</defs>
</svg>
